<?xml version="1.0" encoding="utf-8"?>
<!-- Generator: Adobe Illustrator 23.0.4, SVG Export Plug-In . SVG Version: 6.00 Build 0)  -->
<svg version="1.1" id="Layer_1" xmlns="http://www.w3.org/2000/svg" xmlns:xlink="http://www.w3.org/1999/xlink" x="0px" y="0px"
	 viewBox="0 0 390 157.9" style="enable-background:new 0 0 390 157.9;" xml:space="preserve">
<style type="text/css">
	.st0{fill-rule:evenodd;clip-rule:evenodd;fill:#169DD8;}
	.st1{fill:#424242;}
	.st2{font-family:'MyriadPro-Light';}
	.st3{font-size:49.7976px;}
</style>
<g>
	<g>
		<g>
			<g>
				<g>
					<path class="st0" d="M31.5,64.6c-0.1,7.6-0.2,15.1-0.3,22.7c17.5,13,62.6,10.2,59.9-19.1c-8,21.1-32,25.2-54.1,16.3
						c0-2.8,0.1-5.7,0.1-8.5c5.3,3.2,14,5.8,21.4,5.9c16,0.2,33.4-10.9,33.6-24.8c0.2-12.6-9.8-20.1-28.8-21
						c9.1,2.6,21,9.6,20.8,19.3C83.9,66,73.4,74.5,58.5,74.3C49,74.2,36.5,69.3,31.5,64.6L31.5,64.6z"/>
					<path class="st0" d="M90.5,34.1c0.1-7.6,0.2-15.1,0.3-22.7C73.3-1.6,28.2,1.2,30.8,30.5c8-21.1,32-25.2,54.1-16.3
						c0,2.8-0.1,5.7-0.1,8.5c-5.3-3.2-14-5.8-21.4-5.9c-16-0.2-33.4,10.9-33.6,24.8c-0.2,12.6,9.8,20.1,28.8,21
						c-9.1-2.6-21-9.6-20.8-19.3C38,32.8,48.5,24.3,63.4,24.5C73,24.6,85.5,29.4,90.5,34.1L90.5,34.1z"/>
				</g>
			</g>
		</g>
		<g>
			<path class="st1" d="M139.6,94.2h-14.3c-2.9,0-5.7-0.6-8.3-1.7s-4.8-2.7-6.8-4.6c-1.9-1.9-3.4-4.2-4.5-6.8
				c-1.1-2.6-1.7-5.4-1.7-8.3V12.7l15.6,0v24.4h9.1l3.9,15.6h-13v20.1c0,1.6,0.6,3,1.7,4.2c1.1,1.1,2.5,1.7,4,1.7h10.4L139.6,94.2z"
				/>
			<path class="st1" d="M208.3,29.3v64.9h-15.6v-4.9c-2.3,2-5,3.6-7.9,4.9c-2.9,1.3-6.2,1.9-9.9,1.9c-4.2,0-8.1-0.8-11.6-2.4
				c-3.5-1.6-6.4-3.8-8.9-6.6c-2.5-2.8-4.4-6-5.7-9.7c-1.3-3.7-2-7.7-2-11.9V29.3h15.6v36.1c0,4.1,1.5,7.6,4.5,10.6
				c2.9,2.9,6.5,4.4,10.6,4.4c4.2,0,7.8-1.5,10.8-4.4c2.9-2.9,4.4-6.5,4.4-10.6V29.3H208.3z"/>
			<path class="st1" d="M289.6,3.2v91H274V61.8c0-5.3-1.8-9.7-5.5-13.2c-3.6-3.6-8-5.5-13.1-5.5c-5.2,0-9.6,1.8-13.2,5.5
				c-3.6,3.6-5.5,8-5.5,13.2c0,5.1,1.8,9.5,5.5,13.1c1.7,1.8,3.7,3.2,6,4.1c2.3,0.9,4.7,1.4,7.2,1.4c2.5,0,4.8-0.4,6.9-1.3l5.6,13.9
				c-4,2-8.6,3-13.8,3c-4.8,0-9.2-0.9-13.2-2.7c-4-1.8-7.5-4.2-10.5-7.3s-5.2-6.7-6.9-10.9c-1.6-4.2-2.5-8.6-2.5-13.2
				c0-4.8,0.8-9.2,2.5-13.4c1.6-4.2,3.9-7.8,6.9-10.9s6.4-5.6,10.5-7.3c4-1.8,8.4-2.7,13.2-2.7c4.2,0,7.9,0.6,11.2,1.9
				c3.3,1.3,6.2,2.9,8.7,4.9V3.2H289.6z"/>
			<path class="st1" d="M379.8,29.3l-30.1,64.9l-4,8.8c-2.4,5.3-6.1,9.5-10.9,12.6c-4.9,3.1-10.2,4.7-16.1,4.7h-6.9l3.9-15.6h3.8
				c2.5,0,4.8-0.7,7-2.1c2.2-1.4,3.8-3.2,4.8-5.6l1.3-2.9l-30.1-64.9h17.1l21.5,46.5l21.6-46.5H379.8z"/>
		</g>
		<g>
			<path class="st1" d="M384.4,34.2h-0.8c-0.2,0-0.3,0-0.5-0.1c-0.2-0.1-0.3-0.2-0.4-0.3s-0.2-0.2-0.3-0.4c-0.1-0.2-0.1-0.3-0.1-0.5
				v-3.3l0.9-0.2v1.5h0.5l0.2,0.9h-0.8v1.2c0,0.1,0,0.2,0.1,0.2c0.1,0.1,0.1,0.1,0.2,0.1h0.8V34.2z"/>
			<path class="st1" d="M388.7,30.2c0.2,0,0.4,0,0.6,0.1c0.2,0.1,0.3,0.2,0.4,0.3c0.1,0.1,0.2,0.3,0.2,0.5s0.1,0.4,0.1,0.6v2.4h-0.9
				v-2.4c0-0.2-0.1-0.3-0.2-0.5c-0.1-0.1-0.3-0.2-0.5-0.2s-0.3,0.1-0.5,0.2c-0.1,0.1-0.2,0.3-0.2,0.5v2.4h-0.9v-2.4
				c0-0.2-0.1-0.3-0.2-0.5c-0.1-0.1-0.1-0.1-0.2-0.1c-0.1,0-0.2,0-0.2,0c-0.2,0-0.3,0.1-0.5,0.2c-0.1,0.1-0.2,0.3-0.2,0.5v2.4h-0.9
				v-3.8h0.9v0.3c0.1-0.1,0.3-0.2,0.5-0.3c0.2-0.1,0.3-0.1,0.5-0.1c0.2,0,0.4,0,0.6,0.1c0.1,0.1,0.3,0.2,0.4,0.4
				c0.1-0.1,0.3-0.3,0.5-0.4C388.2,30.3,388.5,30.2,388.7,30.2z"/>
		</g>
		<path class="st1" d="M1.5,12.7h15.7V22L1.5,26.3V12.7z M1.5,94.2V30.5l15.7-4.3v67.9H1.5z"/>
	</g>
	<text transform="matrix(1 0 0 1 0 145.4404)" class="st1 st2 st3">learning is Fun</text>
</g>
</svg>
