<svg id="Layer_1" data-name="Layer 1" xmlns="http://www.w3.org/2000/svg" viewBox="0 0 596.28 144.77"><defs><style>.cls-1{fill:none;stroke:#303132;stroke-miterlimit:10;stroke-width:0.5px;}.cls-2{fill:#989898;}.cls-3{fill:#108fcf;}.cls-4{fill:#2698d5;}.cls-5{fill:#303132;}</style></defs><line class="cls-1" x1="152.03" y1="18.66" x2="152.03" y2="113.23"/><path class="cls-2" d="M343.13,130l4.89,3.83q-4.75,2.47-4.93,7.14a5.61,5.61,0,0,0,3,4.33,12.7,12.7,0,0,0,5.56,1.52q7.29-.09,8.36-3.49c-.05-1.73-1.18-2.71-3.4-3l-5.92,0,7.38-11.06h9.22l-4.74,6.46c3.32.92,5,2.68,5.18,5.28v2.68q-1.74,7.81-14.36,8.83h-4.17a16.3,16.3,0,0,1-8.88-3,10.58,10.58,0,0,1-4.09-8.16,14.11,14.11,0,0,1,6.92-11.4Zm8.38,28.32h-3.19v-3.19h3.19Zm4.78,0H353.1v-3.19h3.19Z" transform="translate(-7.35 -13.56)"/><path class="cls-2" d="M380.34,129.24q8.6.69,9.45,9.08v.52q-.07,8-12,8.14h-6.31v-5.7H380c1.63-.1,2.53-.83,2.68-2.18a3.5,3.5,0,0,0-1-2.72,5.55,5.55,0,0,0-3-1.22h-5.43Z" transform="translate(-7.35 -13.56)"/><path class="cls-3" d="M417.05,130.18v8.95c.05,1.57.81,2.36,2.29,2.38,1.29-.22,2-.8,2.1-1.72V136l7.3-5.94v9.12a2.29,2.29,0,0,0,2.33,2.4c1.38-.25,2.06-.81,2.06-1.7V136l7.34-6,0,11.57q-1,5.58-7.68,5.92a8.18,8.18,0,0,1-6.19-2.3c-1.07,1.34-3.18,2.1-6.32,2.3h-1.47a9.44,9.44,0,0,1-6.78-3.19l.11,2.85H401V141.2h8.94l0-5.25Z" transform="translate(-7.35 -13.56)"/><path class="cls-2" d="M404.77,129.6v10.2q-.11,7.26-9,7.26h-9.65V141.2l9.23,0a2.32,2.32,0,0,0,2.44-2.25v-3.76ZM394.28,132h-3.19v-3.19h3.19Zm4.78,0h-3.19v-3.19h3.19Z" transform="translate(-7.35 -13.56)"/><path class="cls-2" d="M461.17,130l4.89,3.83q-4.76,2.47-4.93,7.14a5.63,5.63,0,0,0,3,4.33,12.78,12.78,0,0,0,5.56,1.52q7.31-.09,8.37-3.49c-.05-1.73-1.18-2.71-3.4-3l-5.92,0,7.37-11.06h9.23l-4.74,6.46q5,1.38,5.18,5.28v2.68q-1.74,7.81-14.37,8.83h-4.16a16.24,16.24,0,0,1-8.88-3,10.55,10.55,0,0,1-4.09-8.16,14.13,14.13,0,0,1,6.91-11.4Zm10.68,28.05h-3.19v-3.19h3.19Zm4.78,0h-3.19v-3.19h3.19Z" transform="translate(-7.35 -13.56)"/><path class="cls-2" d="M489.5,127.51l7.22-5.9v25.45H489.5Z" transform="translate(-7.35 -13.56)"/><path class="cls-4" d="M257,102.24c18.07.23,37.64-12.3,37.84-28,.18-14.14-11-22.65-32.49-23.67,10.26,2.95,23.6,10.78,23.47,21.76-.16,11.9-12,21.46-28.72,21.24-10.77-.14-24.83-5.56-30.48-10.84l-.33,25.56c19.66,14.7,70.5,11.5,67.49-21.47-9,23.76-36.06,28.43-61,18.33l.12-9.55A52.48,52.48,0,0,0,257,102.24Z" transform="translate(-7.35 -13.56)"/><polygon class="cls-3" points="219.29 69.18 219.3 69.19 219.3 69.17 219.29 69.18"/><polygon class="cls-3" points="285.76 34.79 285.75 34.78 285.75 34.79 285.76 34.79"/><path class="cls-3" d="M262.72,28.85c-18.07-.23-37.64,12.3-37.84,28-.18,14.14,11,22.66,32.49,23.67-10.26-3-23.61-10.78-23.47-21.76.16-11.9,12-21.46,28.72-21.24,10.78.14,24.83,5.57,30.48,10.84l.33-25.58c-19.66-14.69-70.5-11.49-67.49,21.47,9-23.75,36.06-28.42,61-18.31l-.12,9.55A52.48,52.48,0,0,0,262.72,28.85Z" transform="translate(-7.35 -13.56)"/><path class="cls-5" d="M346.46,113a40.58,40.58,0,0,1-7.9-13.44c-.12-.34-.22-.68-.34-1H328.07a6.15,6.15,0,0,1-4.53-1.91,6.37,6.37,0,0,1-1.91-4.68V69.24H335.3L330.57,51.7h-8.94V24.25l-17.54,0V91.92a23.15,23.15,0,0,0,1.9,9.36,25.13,25.13,0,0,0,5.12,7.68,23.62,23.62,0,0,0,17,7.1h21.51A36.62,36.62,0,0,1,346.46,113Z" transform="translate(-7.35 -13.56)"/><path class="cls-5" d="M396.14,83.59a17.11,17.11,0,0,1-34.22,0V42.94H344.38V83.59A39,39,0,0,0,346.65,97a33.32,33.32,0,0,0,6.42,11,30.19,30.19,0,0,0,10,7.39,30.63,30.63,0,0,0,13,2.7A28,28,0,0,0,387.2,116a34.39,34.39,0,0,0,8.92-5.48v5.56h17.55V42.94H396.14Z" transform="translate(-7.35 -13.56)"/><path class="cls-5" d="M480.24,48.64a38.33,38.33,0,0,0-9.8-5.56,34,34,0,0,0-12.58-2.19,36.41,36.41,0,0,0-14.84,3,35.91,35.91,0,0,0-11.77,8.26,38.22,38.22,0,0,0-7.75,12.28,42,42,0,0,0,0,30,37.9,37.9,0,0,0,7.75,12.27A35.68,35.68,0,0,0,443,115a36.41,36.41,0,0,0,14.84,3,34.44,34.44,0,0,0,15.5-3.36L467.08,99a20,20,0,0,1-7.76,1.46,21.68,21.68,0,0,1-8.11-1.54,18.73,18.73,0,0,1-6.79-4.6,21,21,0,0,1,14.9-35.82h0a21,21,0,0,1,20.92,21.06v36.55h17.54V13.56H480.24Z" transform="translate(-7.35 -13.56)"/><path class="cls-5" d="M546.34,95.29,522.07,43h-19.3l33.93,73.11-1.47,3.22a14.08,14.08,0,0,1-5.42,6.28,14.36,14.36,0,0,1-7.89,2.35h-4.24l-4.39,17.54H521A33.23,33.23,0,0,0,551.46,126l4.53-9.94L589.9,43H570.61Z" transform="translate(-7.35 -13.56)"/><path class="cls-2" d="M596.37,47.36A.38.38,0,0,1,596,47V45.64h.86l-.26-1H596V43l-1,.26V47a1.3,1.3,0,0,0,.12.55,1.56,1.56,0,0,0,.29.46,1.29,1.29,0,0,0,.45.29,1.33,1.33,0,0,0,.55.12h1v-1Z" transform="translate(-7.35 -13.56)"/><path class="cls-2" d="M603.54,45a1.68,1.68,0,0,0-.26-.56,1.08,1.08,0,0,0-.44-.38,1.26,1.26,0,0,0-.63-.14,2,2,0,0,0-.82.17,2,2,0,0,0-.59.41,1.68,1.68,0,0,0-.45-.43,1.17,1.17,0,0,0-.64-.15,1.22,1.22,0,0,0-.56.14,3.1,3.1,0,0,0-.53.36v-.38h-1v4.31h1V45.73a.75.75,0,0,1,.75-.74.92.92,0,0,1,.28,0,.81.81,0,0,1,.24.17.76.76,0,0,1,.21.52v2.66h1V45.73a.67.67,0,0,1,.22-.52.7.7,0,0,1,.51-.22.73.73,0,0,1,.52.22.68.68,0,0,1,.21.52v2.66h1V45.73A2.61,2.61,0,0,0,603.54,45Z" transform="translate(-7.35 -13.56)"/><polygon class="cls-5" points="189.22 102.48 206.95 102.48 206.95 25.98 189.22 30.77 189.22 102.48"/><polygon class="cls-5" points="189.22 25.97 206.95 21.19 206.95 10.72 189.22 10.72 189.22 25.97"/><path class="cls-5" d="M23,50.69q10.17.57,10.57,9Q33,67.43,23,68.28a20.17,20.17,0,0,1-8.76-2.83V76.13L7.35,70.5V54.24l10.24,5.87-3.78-5.06Q16.63,50.81,23,50.69ZM23,57c-2.29.19-3.52,1.13-3.7,2.8.06,1.68,1.34,2.63,3.84,2.83,2.21-.2,3.35-1.14,3.4-2.81Q26.36,57.27,23,57Z" transform="translate(-7.35 -13.56)"/><path class="cls-5" d="M47.9,50.93V61.14c-.08,4.83-3.07,7.25-9,7.25H29.05l0-5.82h9.41a2.35,2.35,0,0,0,2.45-2.26V56.56ZM39.29,73.36a1.69,1.69,0,0,1-.67,1.32,2.43,2.43,0,0,1-1.63.56,2.21,2.21,0,0,1-1.53-.56,1.68,1.68,0,0,1-.64-1.32A1.63,1.63,0,0,1,35.46,72,2.28,2.28,0,0,1,37,71.51a2.57,2.57,0,0,1,1.63.53A1.66,1.66,0,0,1,39.29,73.36Zm6.66,0a1.65,1.65,0,0,1-.68,1.32,2.48,2.48,0,0,1-1.63.56,2.28,2.28,0,0,1-1.54-.56,1.73,1.73,0,0,1-.64-1.32A1.68,1.68,0,0,1,42.1,72a2.36,2.36,0,0,1,1.54-.53,2.52,2.52,0,0,1,1.63.54A1.61,1.61,0,0,1,46,73.35Z" transform="translate(-7.35 -13.56)"/><path class="cls-5" d="M59.28,43.18V61.54q-.66,5.66-7.81,6.85H43.93v-5.9l5.4,0q3.08,0,3.08-3V48.65Z" transform="translate(-7.35 -13.56)"/><path class="cls-5" d="M68.7,50.69l6.25,0a10.32,10.32,0,0,1,6,2.12,5.86,5.86,0,0,1,2.9,5.3,8.55,8.55,0,0,1-1.95,4.36h2.77l0,5.88H55.33l0-5.88h9.49c-.71-2.86-1.77-4.32-3.17-4.36Zm.61,5.48A17.93,17.93,0,0,1,72.37,63c2.52-1.11,3.81-2.28,3.86-3.49C76.15,57.45,73.85,56.35,69.31,56.17Z" transform="translate(-7.35 -13.56)"/><path class="cls-5" d="M99.65,50.93V61.14q-.11,7.24-9,7.25H81V62.54l9.23,0a2.34,2.34,0,0,0,2.44-2.26V56.56ZM91,45.11a1.68,1.68,0,0,1-.66,1.33,2.48,2.48,0,0,1-1.66.55,2.29,2.29,0,0,1-1.51-.54,1.67,1.67,0,0,1-.66-1.34,1.65,1.65,0,0,1,.66-1.32,2.34,2.34,0,0,1,1.51-.53,2.57,2.57,0,0,1,1.64.54A1.65,1.65,0,0,1,91,45.11Zm6.64,0a1.7,1.7,0,0,1-.66,1.34,2.49,2.49,0,0,1-1.63.55,2.27,2.27,0,0,1-1.53-.55,1.69,1.69,0,0,1,0-2.66,2.31,2.31,0,0,1,1.53-.54,2.46,2.46,0,0,1,1.61.55A1.64,1.64,0,0,1,97.6,45.09Z" transform="translate(-7.35 -13.56)"/><path class="cls-5" d="M111.28,43.18V61.54q-.68,5.66-7.81,6.85H95.92v-5.9l5.41,0q3.08,0,3.07-3V48.65Z" transform="translate(-7.35 -13.56)"/><path class="cls-5" d="M115,48.85l7.23-5.9V68.39H115Z" transform="translate(-7.35 -13.56)"/><path class="cls-5" d="M55.53,88.33l0,12.77c0,.37.17.57.52.58h.24v2.64H53.11a1.42,1.42,0,0,1-1.46-1.55A4.25,4.25,0,0,1,49.7,104a12.73,12.73,0,0,1-4.1.65,11.39,11.39,0,0,1-4.31-.86,6.77,6.77,0,0,1-2.69-1.95,8.63,8.63,0,0,1-1.27-2.13,5.77,5.77,0,0,1-.4-2.19,8.32,8.32,0,0,1,1.09-4,11.74,11.74,0,0,1,3.42-3.74,21.54,21.54,0,0,1,4.93-2.78,24.66,24.66,0,0,1,4.4-1.37,17.71,17.71,0,0,1,2.36-.33,4.3,4.3,0,0,1,2.28.48A1.5,1.5,0,0,1,56.15,87,1.64,1.64,0,0,1,55.53,88.33ZM45.65,102a6.65,6.65,0,0,0,3.88-1.46,4.74,4.74,0,0,0,2-3l0-9a19.08,19.08,0,0,0-3,.86,15.73,15.73,0,0,0-5.18,3,6.47,6.47,0,0,0-2.55,5.1A4.4,4.4,0,0,0,42,100.68,4.88,4.88,0,0,0,45.65,102Zm-2-21.08a1.78,1.78,0,0,1,.6-1.26A2.28,2.28,0,0,1,45.9,79a3.36,3.36,0,0,1,1.74.44,1.4,1.4,0,0,1,.73,1.25,1.87,1.87,0,0,1-.55,1.33,2,2,0,0,1-1.53.58,3.58,3.58,0,0,1-1.91-.46A1.46,1.46,0,0,1,43.62,80.88Zm5,0a1.78,1.78,0,0,1,.6-1.26A2.28,2.28,0,0,1,50.94,79a3.36,3.36,0,0,1,1.74.44,1.4,1.4,0,0,1,.73,1.25,1.91,1.91,0,0,1-.55,1.33,2,2,0,0,1-1.55.58,3.53,3.53,0,0,1-1.89-.46A1.44,1.44,0,0,1,48.66,80.88Z" transform="translate(-7.35 -13.56)"/><path class="cls-5" d="M55.26,104.34V101.7H71a16.23,16.23,0,0,0-6.46-7,57.07,57.07,0,0,1-5.18-3.29,3.2,3.2,0,0,1,.83-1.91,4.57,4.57,0,0,1,1.69-1.19,9.17,9.17,0,0,1,1.06.22q2.09-.78,4.47-1.78a30.38,30.38,0,0,1,5.91-1.66,26.79,26.79,0,0,1,3.38.21,13.94,13.94,0,0,1,3.85,1.21,6.83,6.83,0,0,1,3.31,3,9.68,9.68,0,0,1,1.11,4.67,10.07,10.07,0,0,1-.29,2.18,11.57,11.57,0,0,1-1.09,2.8,12,12,0,0,1-1.73,2.51l3,0v2.64H77.09a6.58,6.58,0,0,1-3.31.67,2.27,2.27,0,0,1-1.09-.67Zm23.41-4.49a8.77,8.77,0,0,0,1.8-2.61,8.21,8.21,0,0,0,.6-1.78c.05-.36.08-.68.1-.95s0-.47,0-.6a5.81,5.81,0,0,0-1.59-4.2A6.88,6.88,0,0,0,74.65,88c-2,.05-5.1,1.14-9.27,3.24a32.83,32.83,0,0,1,10.3,10.31A5.37,5.37,0,0,0,78.67,99.85Z" transform="translate(-7.35 -13.56)"/><path class="cls-5" d="M92.3,101.7c.88,0,1.32-.53,1.34-1.47V87.53c.16-1.56.78-2.34,1.85-2.34s1.58.2,1.84.61a2,2,0,0,1,.38.94,1.79,1.79,0,0,1-.34,1V98.1c0,2.08.68,3.28,2,3.6v2.62H98.26A2.22,2.22,0,0,1,96,103.05c-.28.78-1.57,1.2-3.88,1.27h-8V101.7Zm-6-21a1.78,1.78,0,0,1,.6-1.26,2.27,2.27,0,0,1,1.67-.59,3.28,3.28,0,0,1,1.75.45A1.4,1.4,0,0,1,91,80.54a1.91,1.91,0,0,1-.55,1.34,2,2,0,0,1-1.55.59A3.54,3.54,0,0,1,87,82,1.48,1.48,0,0,1,86.3,80.7Zm5,0a1.76,1.76,0,0,1,.59-1.26,2.31,2.31,0,0,1,1.7-.59,3.18,3.18,0,0,1,1.73.45,1.4,1.4,0,0,1,.72,1.24,1.91,1.91,0,0,1-.55,1.34,2,2,0,0,1-1.55.59A3.53,3.53,0,0,1,92.07,82,1.47,1.47,0,0,1,91.32,80.7Z" transform="translate(-7.35 -13.56)"/><path class="cls-5" d="M103.17,100.78a33.41,33.41,0,0,0,3.56-11.52l.54-2.9a1.6,1.6,0,0,1,1.43-1.09,16.1,16.1,0,0,1,5.54,1.49A13.61,13.61,0,0,1,119.88,91,9,9,0,0,1,122,96.43a8.47,8.47,0,0,1-1.47,4.75,7.89,7.89,0,0,1-3.19,2.68,10.21,10.21,0,0,1-3.45.88,12.3,12.3,0,0,1-5.28-1,9.8,9.8,0,0,1-2.4-1.57,3.62,3.62,0,0,1-3.33,2.21H98.26l-.05-2.6h2.52A2.77,2.77,0,0,0,103.17,100.78Zm7.56-11.68a30.19,30.19,0,0,1-3,9.88,9.88,9.88,0,0,0,5.9,2.46,6.51,6.51,0,0,0,3.33-1,4.32,4.32,0,0,0,1.64-3.25,7.15,7.15,0,0,0-2.18-4.81,12.29,12.29,0,0,0-3.59-2.5A18.11,18.11,0,0,0,110.73,89.1Z" transform="translate(-7.35 -13.56)"/></svg>